PathFileType	4	(X/Y/Z)	0_1_34_p1_0-240.trc
DataRate	CameraRate	NumFrames	NumMarkers	Units	OrigDataRate	OrigDataStartFrame	OrigNumFrames
60	60	5	27	m	60	120	240
Frame#	Time	RHip			RKnee			RAnkle			RBigToe			RSmallToe			RHeel			LHip			LKnee			LAnkle			LBigToe			LSmallToe			LHeel			Neck			Head			Nose			RShoulder			RElbow			RWrist			RThumb			RIndex			RPinky			LShoulder			LElbow			LWrist			LThumb			LIndex			LPinky		
		X1	Y1	Z1	X2	Y2	Z2	X3	Y3	Z3	X4	Y4	Z4	X5	Y5	Z5	X6	Y6	Z6	X7	Y7	Z7	X8	Y8	Z8	X9	Y9	Z9	X10	Y10	Z10	X11	Y11	Z11	X12	Y12	Z12	X13	Y13	Z13	X14	Y14	Z14	X15	Y15	Z15	X16	Y16	Z16	X17	Y17	Z17	X18	Y18	Z18	X19	Y19	Z19	X20	Y20	Z20	X21	Y21	Z21	X22	Y22	Z22	X23	Y23	Z23	X24	Y24	Z24	X25	Y25	Z25	X26	Y26	Z26	X27	Y27	Z27
121	2.0166666666666666	0.1185166962065415	0.15397570325597124	0.0877750495166375	0.13904570931105673	0.08470732515733809	-0.2910258741385313	0.14822800470915135	0.21097563034025618	-0.726264315055759	0.17710209896893522	0.07971118478771201	-0.7958815959570659	0.09747599307810025	0.08686940450329825	-0.7807572628053053	0.15649619044776725	0.26317260784777025	-0.7861725914717259	0.33226384899153827	0.14200720077754445	0.08542964365539132	0.3393986255150321	0.11538433495968185	-0.32535742712990584	0.3671064682753371	0.2014866482824207	-0.7216122343653774	0.3276683163081076	0.07078885770923996	-0.780754786964046	0.387997477744904	0.12502653045600035	-0.7959512387058516	0.3582753528133836	0.2708432229832545	-0.7939024000955178	0.2121044169119872	0.1989540959759412	0.5884197660117366	0.1774362423156818	0.16612124016215382	0.8354801921280904	0.1698115412041257	0.06269656096185307	0.7101857958110969	0.06893543139185801	0.2123320458951381	0.5199890615253547	0.00995601410375752	0.03030831189253225	0.3674742367140737	0.05536591728754131	-0.15929268920461645	0.5494336013183861	0.10807658470089465	-0.1679021443283433	0.6120641346674672	0.10072105355498862	-0.21206217831963675	0.619505060195192	0.10339084737540205	-0.25266565206415803	0.6144217267727672	0.3478632057608728	0.20188242235817128	0.5321992873818775	0.3967471866899356	0.004106726240106401	0.39106549750044634	0.25995001745650814	-0.08617799019245546	0.5713043131384793	0.19781593478453133	-0.04659871027939983	0.5984147465055654	0.18493545505387027	-0.051490056657198614	0.6306950400768349	0.18133871666504275	-0.18196790067384275	0.615049472074503
122	2.033333333333333	0.11664296238539462	0.15519168669607805	0.06589692607193454	0.14167601401369057	0.07040254653291632	-0.3009732725179318	0.1510738330098725	0.20840377532914905	-0.7343322297401076	0.17752217828833658	0.07754905257230266	-0.7991780256539374	0.09616972692723713	0.0850446667133425	-0.7887721998687116	0.1536823832217682	0.24697836563990833	-0.7803345524074597	0.3361111745026518	0.15470511954976093	0.057433512480247584	0.3323070598821051	0.10152317882421544	-0.33538409880998993	0.36617111054226487	0.20064425146613518	-0.7312149290645955	0.3274335279811326	0.07021311447518312	-0.7806330918890467	0.38849254232892244	0.12198350254991944	-0.803000882287836	0.35700904177439874	0.270198700576804	-0.8034438401993848	0.2077265018266693	0.20026498945718288	0.5730970297933882	0.1782028922473362	0.16430291358585927	0.8284521210909467	0.17334317443559838	0.07483877324500209	0.6912785074305235	0.06905644493740172	0.21145229391529702	0.5125396197074755	0.009757545118222485	0.02823813299141701	0.3484218165717307	0.06182348854000931	-0.1504858894589672	0.517238777190472	0.1089251650765726	-0.18651175389112992	0.5888099049454214	0.10676781823892673	-0.22272589799637973	0.6021110620019587	0.10629532990419613	-0.2675147244810392	0.5736915092348609	0.3526898668561028	0.21033715755365465	0.5175594515622659	0.3969910860374858	0.0024709118787200218	0.36988412071101306	0.2530600541134039	-0.10906893248976753	0.5492971359972814	0.1979201942823352	-0.08288652148830224	0.5831799051602705	0.1873226454119349	-0.07915598806698339	0.5932621755518532	0.18478742834387493	-0.17472608648845336	0.5956208314769486
123	2.05	0.12615691447294405	0.16377342401482892	0.045470960163428026	0.14145362616795434	0.06823504030546285	-0.3217689719802911	0.1548609349348426	0.20512149966545887	-0.747561741047004	0.17759329973700924	0.07689217988064409	-0.7987955709572767	0.10052756564789297	0.08307750266900975	-0.7878485397293099	0.15835209502980704	0.2609957968918495	-0.8116332074217975	0.33661902430146484	0.153649468064397	0.0451725266398006	0.3314867721188604	0.10017835876814452	-0.3444650616656978	0.36607973093279655	0.2003172910174583	-0.7310282236357399	0.32489845668986184	0.058248895055655586	-0.7678073520315886	0.38132253471880134	0.10949209945784044	-0.7891385054701743	0.35362566912335014	0.27409972635234076	-0.8022852545144197	0.21016684625775967	0.18705346507349388	0.5605610296621504	0.183077454877345	0.1732113040098119	0.8164657237383838	0.18215879412014005	0.08381801627260585	0.6820406624048612	0.07170130401193596	0.195367899879945	0.5043892155841708	0.014356704817970826	0.028182633566125277	0.324930269559178	0.0674978736010193	-0.17903502379687566	0.48849312494461666	0.10657348412241521	-0.1968372111888058	0.5452909987173471	0.10370980789258823	-0.23039250063555378	0.5596747548988109	0.10984786735971967	-0.25308040311814983	0.5397664950870149	0.3510727795302868	0.21977509769191453	0.5049283886282229	0.39712917617907634	0.0011268496286798552	0.3588245829362739	0.24660755260534747	-0.11515683652114528	0.5067181232532421	0.1917357171165193	-0.06918649393308103	0.5526208999706287	0.17439818163951165	-0.1043588960364307	0.5766495751557406	0.1773032879203155	-0.17607563755261738	0.5463957658187817
124	2.066666666666667	0.11898414962668098	0.173853233491081	0.024377887365450348	0.14445326954183413	0.06442448996205416	-0.34181389347595814	0.15288086939265116	0.20576548230591563	-0.7630327071401439	0.18083937863439528	0.06329492757520418	-0.7895448749462265	0.09954407752903646	0.0816157737296815	-0.7964890312501431	0.1574132327067154	0.2622011018278247	-0.8186993847842804	0.3366288772723629	0.1505999566062738	0.03356961993835797	0.3313631284128819	0.09607066024962721	-0.3622249671174369	0.36372978767543274	0.21565767964338678	-0.7366689510043395	0.3258590783309248	0.05774942543524533	-0.7714537417631175	0.38126820084191776	0.10978084815788886	-0.7892285057112238	0.35096931653232777	0.28990230461944233	-0.8082114076028096	0.20936123567512332	0.18260232156188658	0.5352611717023553	0.18706640062554128	0.16772189971971418	0.7932808725320544	0.1777032210023156	0.08129898997870669	0.6577293600124517	0.06315840174325094	0.20786103835074332	0.4813944826321852	0.011065803443726206	0.023091398138756162	0.30810119436327404	0.06553051949238292	-0.18216361972520986	0.4390546604939522	0.11033024409852794	-0.18269282024735312	0.49010968860321213	0.11030817004604507	-0.237185309789194	0.513020589312592	0.11343365628814982	-0.2790164385976956	0.49153547318865953	0.351403596461055	0.2189821065812559	0.49354199678400945	0.3980092027574973	-0.01403289152573036	0.34760001989583245	0.24072957179581092	-0.11784294188279458	0.47810256535511453	0.19315967501565642	-0.10840510901245906	0.5006231450482287	0.16272260604083252	-0.1429005683364491	0.5180204053874332	0.17312644995297724	-0.15767508859714707	0.4994368651077772
125	2.0833333333333335	0.11399802715200831	0.15573996307419208	0.012616072457114479	0.14539163576340608	0.061371187038320424	-0.35363014012404614	0.15354711156567274	0.20256732693668345	-0.7710827148575425	0.1730731156590343	0.062299048497679	-0.7881265731747388	0.09977390268924104	0.0813661319562544	-0.7965113692658734	0.1627641643025764	0.2574697475729675	-0.830462324285745	0.33031460182823663	0.13299606557532423	0.02457804663634519	0.33201443921126933	0.09515425231582016	-0.3756256131018487	0.3637152821264037	0.21540726418881742	-0.7366691337524015	0.3326853686296519	0.06897324436575067	-0.7842485553059271	0.3876092287202576	0.12278420590836404	-0.7991145211232218	0.35068868222449046	0.28960001208735386	-0.8072950045070536	0.21066706183254075	0.19119149328149482	0.5220289355095663	0.18203960585815804	0.1543904791772841	0.7809306753061014	0.18191914231693554	0.08644870284260306	0.6353603549153439	0.06206380565100275	0.20509011321112433	0.4596689859777955	0.01573161800751633	0.030806345701442507	0.2911376403426491	0.07806147934563744	-0.20222839071728585	0.40972336067538195	0.09970522615784663	-0.25388435755251915	0.4613455311709272	0.10333588575516882	-0.28352128041185803	0.4716301702915305	0.12218323287773211	-0.2798406569035519	0.4341700537324799	0.3513590550839484	0.21722597046665715	0.48598430817020927	0.4010247848687251	0.009040695801978225	0.32870974784649826	0.2395152455651644	-0.13452509529192008	0.4309879607642046	0.1725220952865531	-0.14287002451231426	0.47628573970361915	0.14588132040771237	-0.1720577860586409	0.4852017137504543	0.1621763801124209	-0.16948340271466394	0.4451435817519337
